<svg xmlns="http://www.w3.org/2000/svg" xmlns:xlink="http://www.w3.org/1999/xlink" width="1600" zoomAndPan="magnify" viewBox="0 0 1200 1199.999942" height="1600" preserveAspectRatio="xMidYMid meet" version="1.0"><defs><clipPath id="c9366da2e2"><path d="M 259.226562 259.226562 L 940.976562 259.226562 L 940.976562 940.976562 L 259.226562 940.976562 Z M 259.226562 259.226562 " clip-rule="nonzero"/></clipPath></defs><g clip-path="url(#c9366da2e2)"><path fill="#000000" d="M 940.992188 600.101562 C 940.992188 605.679688 940.855469 611.253906 940.578125 616.824219 C 940.304688 622.398438 939.894531 627.960938 939.347656 633.511719 C 938.800781 639.0625 938.121094 644.597656 937.300781 650.117188 C 936.480469 655.636719 935.527344 661.128906 934.441406 666.601562 C 933.351562 672.074219 932.128906 677.515625 930.773438 682.925781 C 929.417969 688.335938 927.933594 693.710938 926.3125 699.050781 C 924.691406 704.390625 922.945312 709.683594 921.0625 714.9375 C 919.183594 720.191406 917.175781 725.394531 915.042969 730.546875 C 912.90625 735.699219 910.648438 740.800781 908.261719 745.84375 C 905.878906 750.886719 903.371094 755.867188 900.742188 760.789062 C 898.109375 765.707031 895.363281 770.558594 892.492188 775.34375 C 889.625 780.128906 886.640625 784.839844 883.542969 789.480469 C 880.441406 794.117188 877.230469 798.679688 873.910156 803.160156 C 870.585938 807.640625 867.15625 812.035156 863.617188 816.347656 C 860.078125 820.660156 856.433594 824.882812 852.6875 829.015625 C 848.941406 833.152344 845.09375 837.191406 841.152344 841.136719 C 837.207031 845.078125 833.167969 848.925781 829.03125 852.671875 C 824.898438 856.417969 820.675781 860.0625 816.363281 863.601562 C 812.050781 867.140625 807.65625 870.570312 803.175781 873.894531 C 798.695312 877.214844 794.132812 880.425781 789.496094 883.527344 C 784.855469 886.625 780.144531 889.609375 775.359375 892.476562 C 770.574219 895.347656 765.722656 898.09375 760.804688 900.726562 C 755.882812 903.355469 750.902344 905.863281 745.859375 908.246094 C 740.816406 910.632812 735.714844 912.890625 730.5625 915.027344 C 725.410156 917.160156 720.207031 919.167969 714.953125 921.046875 C 709.699219 922.929688 704.40625 924.675781 699.066406 926.296875 C 693.726562 927.917969 688.351562 929.402344 682.941406 930.757812 C 677.53125 932.113281 672.089844 933.335938 666.617188 934.425781 C 661.144531 935.511719 655.652344 936.46875 650.132812 937.285156 C 644.613281 938.105469 639.078125 938.785156 633.527344 939.332031 C 627.976562 939.878906 622.414062 940.289062 616.839844 940.5625 C 611.269531 940.839844 605.695312 940.976562 600.117188 940.976562 C 594.535156 940.976562 588.960938 940.839844 583.390625 940.5625 C 577.816406 940.289062 572.253906 939.878906 566.703125 939.332031 C 561.152344 938.785156 555.617188 938.105469 550.097656 937.285156 C 544.582031 936.464844 539.085938 935.511719 533.613281 934.425781 C 528.140625 933.335938 522.699219 932.113281 517.289062 930.757812 C 511.878906 929.402344 506.503906 927.917969 501.164062 926.296875 C 495.828125 924.675781 490.53125 922.929688 485.277344 921.046875 C 480.027344 919.167969 474.820312 917.160156 469.667969 915.027344 C 464.515625 912.890625 459.414062 910.632812 454.371094 908.246094 C 449.328125 905.863281 444.347656 903.355469 439.429688 900.726562 C 434.507812 898.09375 429.65625 895.347656 424.871094 892.476562 C 420.085938 889.609375 415.375 886.625 410.734375 883.527344 C 406.097656 880.425781 401.539062 877.214844 397.054688 873.894531 C 392.574219 870.570312 388.179688 867.140625 383.867188 863.601562 C 379.554688 860.0625 375.332031 856.417969 371.199219 852.671875 C 367.0625 848.925781 363.023438 845.078125 359.082031 841.136719 C 355.136719 837.191406 351.289062 833.152344 347.542969 829.015625 C 343.796875 824.882812 340.15625 820.660156 336.617188 816.347656 C 333.078125 812.035156 329.644531 807.640625 326.320312 803.160156 C 323 798.679688 319.789062 794.117188 316.6875 789.480469 C 313.589844 784.839844 310.605469 780.128906 307.738281 775.34375 C 304.871094 770.558594 302.121094 765.707031 299.492188 760.789062 C 296.859375 755.867188 294.351562 750.886719 291.96875 745.84375 C 289.582031 740.800781 287.324219 735.699219 285.1875 730.546875 C 283.054688 725.394531 281.046875 720.191406 279.167969 714.9375 C 277.289062 709.683594 275.539062 704.390625 273.917969 699.050781 C 272.300781 693.710938 270.8125 688.335938 269.457031 682.925781 C 268.101562 677.515625 266.878906 672.074219 265.789062 666.601562 C 264.703125 661.128906 263.75 655.636719 262.929688 650.117188 C 262.113281 644.597656 261.429688 639.0625 260.882812 633.511719 C 260.335938 627.960938 259.925781 622.398438 259.652344 616.824219 C 259.378906 611.253906 259.242188 605.679688 259.242188 600.101562 C 259.242188 594.519531 259.378906 588.945312 259.652344 583.375 C 259.925781 577.800781 260.335938 572.238281 260.882812 566.6875 C 261.429688 561.136719 262.113281 555.601562 262.929688 550.082031 C 263.75 544.566406 264.703125 539.070312 265.789062 533.597656 C 266.878906 528.125 268.101562 522.683594 269.457031 517.273438 C 270.8125 511.863281 272.300781 506.488281 273.917969 501.148438 C 275.539062 495.808594 277.289062 490.515625 279.167969 485.261719 C 281.046875 480.011719 283.054688 474.804688 285.1875 469.652344 C 287.324219 464.5 289.582031 459.398438 291.96875 454.355469 C 294.351562 449.3125 296.859375 444.332031 299.492188 439.414062 C 302.121094 434.492188 304.871094 429.640625 307.738281 424.855469 C 310.605469 420.070312 313.589844 415.359375 316.6875 410.71875 C 319.789062 406.082031 323 401.523438 326.320312 397.039062 C 329.644531 392.558594 333.078125 388.164062 336.617188 383.851562 C 340.15625 379.539062 343.796875 375.316406 347.542969 371.183594 C 351.289062 367.046875 355.136719 363.007812 359.082031 359.066406 C 363.023438 355.121094 367.0625 351.273438 371.199219 347.527344 C 375.332031 343.78125 379.554688 340.140625 383.867188 336.601562 C 388.179688 333.0625 392.574219 329.628906 397.054688 326.304688 C 401.539062 322.984375 406.097656 319.773438 410.734375 316.671875 C 415.375 313.574219 420.085938 310.589844 424.871094 307.722656 C 429.65625 304.855469 434.507812 302.105469 439.429688 299.476562 C 444.347656 296.84375 449.328125 294.335938 454.371094 291.953125 C 459.414062 289.566406 464.515625 287.308594 469.667969 285.171875 C 474.820312 283.039062 480.027344 281.03125 485.277344 279.152344 C 490.53125 277.273438 495.828125 275.523438 501.164062 273.902344 C 506.503906 272.285156 511.878906 270.796875 517.289062 269.441406 C 522.699219 268.085938 528.140625 266.863281 533.613281 265.773438 C 539.085938 264.6875 544.582031 263.734375 550.097656 262.914062 C 555.617188 262.09375 561.152344 261.414062 566.703125 260.867188 C 572.253906 260.320312 577.816406 259.910156 583.390625 259.636719 C 588.960938 259.363281 594.535156 259.226562 600.117188 259.226562 C 605.695312 259.226562 611.269531 259.363281 616.839844 259.636719 C 622.414062 259.910156 627.976562 260.320312 633.527344 260.867188 C 639.078125 261.414062 644.613281 262.09375 650.132812 262.914062 C 655.652344 263.734375 661.144531 264.6875 666.617188 265.773438 C 672.089844 266.863281 677.53125 268.085938 682.941406 269.441406 C 688.351562 270.796875 693.726562 272.285156 699.066406 273.902344 C 704.40625 275.523438 709.699219 277.273438 714.953125 279.152344 C 720.207031 281.03125 725.410156 283.039062 730.5625 285.171875 C 735.714844 287.308594 740.816406 289.566406 745.859375 291.953125 C 750.902344 294.335938 755.882812 296.84375 760.804688 299.476562 C 765.722656 302.105469 770.574219 304.851562 775.359375 307.722656 C 780.144531 310.589844 784.855469 313.574219 789.496094 316.671875 C 794.132812 319.773438 798.695312 322.984375 803.175781 326.304688 C 807.65625 329.628906 812.050781 333.0625 816.363281 336.601562 C 820.675781 340.140625 824.898438 343.78125 829.03125 347.527344 C 833.167969 351.273438 837.207031 355.121094 841.152344 359.066406 C 845.09375 363.007812 848.941406 367.046875 852.6875 371.183594 C 856.433594 375.316406 860.078125 379.539062 863.617188 383.851562 C 867.15625 388.164062 870.585938 392.558594 873.910156 397.039062 C 877.230469 401.523438 880.441406 406.082031 883.542969 410.71875 C 886.640625 415.359375 889.625 420.070312 892.492188 424.855469 C 895.363281 429.640625 898.109375 434.492188 900.742188 439.414062 C 903.371094 444.332031 905.878906 449.3125 908.261719 454.355469 C 910.648438 459.398438 912.90625 464.5 915.042969 469.652344 C 917.175781 474.804688 919.183594 480.011719 921.0625 485.261719 C 922.945312 490.515625 924.691406 495.8125 926.3125 501.148438 C 927.933594 506.488281 929.417969 511.863281 930.773438 517.273438 C 932.128906 522.683594 933.351562 528.125 934.441406 533.597656 C 935.527344 539.070312 936.480469 544.566406 937.300781 550.082031 C 938.121094 555.601562 938.800781 561.136719 939.347656 566.6875 C 939.894531 572.238281 940.304688 577.800781 940.578125 583.375 C 940.855469 588.945312 940.992188 594.519531 940.992188 600.101562 Z M 940.992188 600.101562 " fill-opacity="1" fill-rule="nonzero"/></g><path fill="#ffffff" d="M 599.105469 587.523438 L 800.238281 476.5 C 801.210938 475.953125 802.230469 475.574219 803.269531 475.347656 C 800.230469 473.375 796.609375 472.21875 792.71875 472.21875 L 405.492188 472.21875 C 402.128906 472.21875 398.964844 473.074219 396.207031 474.582031 Z M 599.105469 587.523438 " fill-opacity="1" fill-rule="nonzero"/><path fill="#ffffff" d="M 810.964844 495.632812 L 604.472656 609.667969 C 602.804688 610.601562 600.953125 611.070312 599.105469 611.070312 C 597.257812 611.070312 595.410156 610.601562 593.742188 609.667969 L 386.058594 494.042969 L 386.058594 708.542969 C 386.058594 719.277344 394.761719 727.980469 405.492188 727.980469 L 792.71875 727.980469 C 803.453125 727.980469 812.152344 719.277344 812.152344 708.542969 L 812.152344 494.851562 C 811.777344 495.128906 811.386719 495.398438 810.964844 495.632812 Z M 810.964844 495.632812 " fill-opacity="1" fill-rule="nonzero"/></svg>